<svg width="40" height="40" viewBox="0 0 40 40" fill="none" xmlns="http://www.w3.org/2000/svg">
<g clip-path="url(#clip0_480_4685)">
<path fill-rule="evenodd" clip-rule="evenodd" d="M20.0014 40C23.9574 40 27.8246 38.8269 31.1139 36.6289C34.4032 34.431 36.9668 31.3071 38.4806 27.6521C39.9944 23.9972 40.3903 19.9754 39.6183 16.0955C38.8463 12.2155 36.9411 8.65159 34.1435 5.85445C31.346 3.05732 27.7818 1.15259 23.9018 0.381148C20.0217 -0.390292 16 0.00620552 12.3452 1.5205C8.69052 3.03479 5.56692 5.59886 3.36947 8.88845C1.17203 12.178 -0.00055801 16.0454 1.99208e-07 20.0014C0.0104445 25.3026 2.12117 30.3837 5.86998 34.132C9.6188 37.8803 14.7002 39.9903 20.0014 40Z" fill="#BABABA"/>
<path fill-rule="evenodd" clip-rule="evenodd" d="M24.9038 14.0408C26.5436 14.1198 28.1127 14.2807 28.4966 16.2083C28.8719 18.0653 28.8719 21.9375 28.4966 23.7917C28.1127 25.7193 26.5436 25.8887 24.9038 25.9592C21.6018 26.1201 18.4126 26.1201 15.0964 25.9592C13.4567 25.8887 11.896 25.7193 11.5037 23.7917C11.1368 21.9375 11.1368 18.0653 11.5037 16.2083C11.896 14.2807 13.4567 14.1198 15.0964 14.0408C18.4013 13.8799 21.6018 13.8799 24.9038 14.0408Z" fill="#FEFEFE"/>
<path fill-rule="evenodd" clip-rule="evenodd" d="M22.8574 19.9845L18.3276 17.3428V22.6572L22.8574 19.9845Z" fill="#BABABA"/>
</g>
<defs>
<clipPath id="clip0_480_4685">
<rect width="40" height="40" fill="white"/>
</clipPath>
</defs>
</svg>
